HIERARCHY
ROOT Hips
{
	OFFSET 0.00000 0.00000 0.00000
	CHANNELS 6 Xposition Yposition Zposition Zrotation Yrotation Xrotation 
	JOINT LHipJoint
	{
		OFFSET 0 0 0
		CHANNELS 3 Zrotation Yrotation Xrotation
		JOINT LeftHip
		{
			OFFSET 1.58895 -1.83665 0.71753
			CHANNELS 3 Zrotation Yrotation Xrotation
			JOINT LeftKnee
			{
				OFFSET 2.50528 -6.88321 0.00000
				CHANNELS 3 Zrotation Yrotation Xrotation
				JOINT LeftAnkle
				{
					OFFSET 2.63244 -7.23257 0.00000
					CHANNELS 3 Zrotation Yrotation Xrotation
					JOINT LeftToe
					{
						OFFSET 0.23691 -0.65090 1.72750
						CHANNELS 3 Zrotation Yrotation Xrotation
						End Site
						{
							OFFSET 0.00000 -0.00000 0.92561
						}
					}
				}
			}
		}
	}
	JOINT RHipJoint
	{
		OFFSET 0 0 0
		CHANNELS 3 Zrotation Yrotation Xrotation
		JOINT RightHip
		{
			OFFSET -1.51435 -1.83665 0.71753
			CHANNELS 3 Zrotation Yrotation Xrotation
			JOINT RightKnee
			{
				OFFSET -2.54551 -6.99375 0.00000
				CHANNELS 3 Zrotation Yrotation Xrotation
				JOINT RightAnkle
				{
					OFFSET -2.66027 -7.30903 0.00000
					CHANNELS 3 Zrotation Yrotation Xrotation
					JOINT RightToe
					{
						OFFSET -0.22981 -0.63138 2.03959
						CHANNELS 3 Zrotation Yrotation Xrotation
						End Site
						{
							OFFSET -0.00000 -0.00000 1.07060
						}
					}
				}
			}
		}
	}
	JOINT lowerback
	{
		OFFSET 0 0 0
		CHANNELS 3 Zrotation Yrotation Xrotation
		JOINT Chest
		{
			OFFSET -0.02651 1.86275 -0.11152
			CHANNELS 3 Zrotation Yrotation Xrotation
			JOINT Chest2
			{
				OFFSET 0.01019 1.86224 0.04087
				CHANNELS 3 Zrotation Yrotation Xrotation
				JOINT lowerneck
				{
					OFFSET 0 0 0
					CHANNELS 3 Zrotation Yrotation Xrotation
					JOINT Neck
					{
						OFFSET -0.01926 1.80512 0.08867
						CHANNELS 3 Zrotation Yrotation Xrotation
						JOINT Head
						{
							OFFSET 0.05516 1.76451 -0.38475
							CHANNELS 3 Zrotation Yrotation Xrotation
							End Site
							{
								OFFSET 0.01592 1.82587 -0.14001
							}
						}
					}
				}
				JOINT LeftCollar
				{
					OFFSET 0 0 0
					CHANNELS 3 Zrotation Yrotation Xrotation
					JOINT LeftShoulder
					{
						OFFSET 3.47116 1.51376 0.14491
CHANNELS 3 Zrotation Xrotation Yrotation
						JOINT LeftElbow
						{
OFFSET 0 -4.780950 0.000000
CHANNELS 3 Zrotation Xrotation Yrotation
							JOINT LeftWrist
							{
OFFSET 0 -3.586150 -0.000000
CHANNELS 3 Zrotation Xrotation Yrotation
								JOINT lhand
								{
									OFFSET 0 0 0
CHANNELS 3 Zrotation Xrotation Yrotation
									JOINT LFingers
									{
OFFSET 0 -0.659810 0.000000
CHANNELS 3 Zrotation Xrotation Yrotation
										End Site
										{
OFFSET 0 -0.531960 0.000000
										}
									}
								}
								JOINT LThumb
								{
OFFSET 0 0.000000 0.000000
CHANNELS 3 Zrotation Xrotation Yrotation
									End Site
									{
OFFSET 0 -0.540080 0.540080
									}
								}
							}
						}
					}
				}
				JOINT RightCollar
				{
					OFFSET 0 0 0
					CHANNELS 3 Zrotation Yrotation Xrotation
					JOINT RightShoulder
					{
						OFFSET -3.31725 1.61216 0.35156
CHANNELS 3 Zrotation Xrotation Yrotation
						JOINT RightElbow
						{
OFFSET 0 -4.489130 0.000000
CHANNELS 3 Zrotation Xrotation Yrotation
							JOINT RightWrist
							{
OFFSET 0 -3.705100 0.000000
CHANNELS 3 Zrotation Xrotation Yrotation
								JOINT rhand
								{
									OFFSET 0 0 0
CHANNELS 3 Zrotation Xrotation Yrotation
									JOINT RFingers
									{
OFFSET 0 -0.449140 0.000000
CHANNELS 3 Zrotation Xrotation Yrotation
										End Site
										{
OFFSET 0 -0.362110 0.000000
										}
									}
								}
								JOINT RThumb
								{
OFFSET 0 0.000000 0.000000
CHANNELS 3 Zrotation Xrotation Yrotation
									End Site
									{
OFFSET 0 -0.367630 0.367630
									}
								}
							}
						}
					}
				}
			}
		}
	}
}
MOTION
Frames: 9
Frame Time: .0083333
-0.5791 18.7277 4.7211 -0.8041 -3.4577 2.7264 0.0000 0.0000 0.0000 -15.0029 -9.4293 -1.4629 1.1791 6.8918 19.3953 1.6639 5.2365 -26.7272 7.9926 -16.1138 -52.5359 0.0000 0.0000 0.0000 0.0000 0.0000 0.0000 0.0000 0.0000 0.0000 -0.0000 -0.0000 0.0000 -0.0000 -0.0000 0.0000 -1.2109 0.9191 -0.4192 0.0244 1.2068 -3.7777 0.6692 0.6407 -3.6739 -3.3603 -3.0322 -9.9199 4.0737 -4.7833 27.4265 1.4577 -2.0865 10.5925 -0.0000 -0.0000 0.0000 -1.2795 16.6476 -21.3782 22.1351 -33.1294 6.6595 2.8712 5.9765 26.1067 0.0 0.0 0.0 -7.1250 0.0 0.0 -16.1752 4.7005 -15.4365 -0.0000 -0.0000 0.0000 5.2362 24.8216 10.2818 -28.0707 -39.1813 -10.1683 -2.3845 17.065 41.4003 0.0 0.0 0.0 7.1250 0.0 -0.0 44.8412 66.0531 -24.8868
-0.5779 18.7274 4.7226 -0.7780 -3.4727 2.7199 0.0000 0.0000 0.0000 -15.0503 -9.4812 -1.4258 1.1794 6.8925 19.3972 1.6738 5.2414 -26.8001 7.9852 -16.1083 -52.5092 0.0000 0.0000 0.0000 0.0000 0.0000 0.0000 0.0000 0.0000 0.0000 -0.0000 -0.0000 0.0000 -0.0000 -0.0000 0.0000 -1.2056 0.9284 -0.4150 -0.0016 1.2183 -3.7908 0.6388 0.6459 -3.6894 -3.3399 -3.0315 -9.9148 4.0657 -4.7857 27.4501 1.4513 -2.0863 10.5997 -0.0000 -0.0000 0.0000 -1.232 16.6692 -21.4088 22.0671 -33.0528 6.6224 3.0149 5.737 26.5226 0.0 0.0 0.0 -7.1250 0.0 0.0 -16.0881 4.2899 -15.4745 -0.0000 -0.0000 0.0000 5.2702 24.8503 10.2538 -28.0701 -39.1807 -10.1679 -2.3485 17.0322 41.4492 0.0 0.0 0.0 7.1250 0.0 -0.0 44.9551 66.0767 -24.9846
-0.5784 18.7276 4.7218 -0.7813 -3.4620 2.7355 0.0000 0.0000 0.0000 -15.0278 -9.4218 -1.4744 1.1789 6.8912 19.3934 1.6716 5.1771 -26.7490 7.9741 -16.1002 -52.4695 0.0000 0.0000 0.0000 0.0000 0.0000 0.0000 0.0000 0.0000 0.0000 -0.0000 -0.0000 0.0000 -0.0000 -0.0000 0.0000 -1.1929 0.9269 -0.4006 -0.0154 1.2158 -3.8151 0.6171 0.6443 -3.7222 -3.3502 -3.0288 -9.8810 4.0930 -4.7883 27.4563 1.4630 -2.0859 10.5964 0.0000 0.0000 0.0000 -1.1943 16.6906 -21.4686 22.0769 -33.0638 6.6277 2.9967 5.697 26.4914 0.0 0.0 0.0 -7.1250 0.0 0.0 -16.0989 4.3213 -15.476 0.0000 0.0000 0.0000 5.3014 24.8779 10.2321 -28.0721 -39.1826 -10.1692 -2.2546 16.989 41.4607 0.0 0.0 0.0 7.1250 0.0 -0.0 45.0632 66.0568 -25.0355
-0.5800 18.7283 4.7202 -0.7938 -3.4387 2.7607 0.0000 0.0000 0.0000 -14.9814 -9.3405 -1.5435 1.1781 6.8888 19.3865 1.6647 5.1093 -26.6635 7.9704 -16.0974 -52.4560 0.0000 0.0000 0.0000 0.0000 0.0000 0.0000 0.0000 0.0000 0.0000 -0.0000 -0.0000 0.0000 -0.0000 -0.0000 0.0000 -1.2044 0.9175 -0.3944 -0.0184 1.2026 -3.8430 0.6205 0.6383 -3.7546 -3.3260 -3.0250 -9.8343 4.0983 -4.7909 27.4577 1.4611 -2.0848 10.5873 0.0000 -0.0000 0.0000 -1.1775 16.7155 -21.4678 22.0847 -33.0726 6.632 2.9388 5.7354 26.5041 0.0 0.0 0.0 -7.1250 0.0 0.0 -16.1327 4.3137 -15.5138 0.0000 -0.0000 0.0000 5.3229 24.8998 10.2214 -28.0763 -39.1864 -10.1719 -2.1266 16.9567 41.4648 0.0 0.0 0.0 7.1250 0.0 -0.0 45.1918 66.0219 -25.085
-0.5802 18.7276 4.7208 -0.7957 -3.4358 2.7487 0.0000 0.0000 0.0000 -14.9840 -9.3614 -1.5136 1.1774 6.8868 19.3806 1.6659 5.1252 -26.6809 7.9795 -16.1041 -52.4887 0.0000 0.0000 0.0000 0.0000 0.0000 0.0000 0.0000 0.0000 0.0000 -0.0000 -0.0000 0.0000 -0.0000 -0.0000 0.0000 -1.2123 0.9096 -0.3903 -0.0175 1.1919 -3.8452 0.6260 0.6333 -3.7592 -3.3177 -3.0196 -9.8262 4.0896 -4.7837 27.4761 1.4577 -2.0817 10.5918 0.0000 0.0000 0.0000 -1.1839 16.7266 -21.4293 22.0844 -33.0723 6.6318 2.8948 5.7802 26.6068 0.0 0.0 0.0 -7.1250 0.0 0.0 -16.1578 4.2186 -15.5698 0.0000 0.0000 0.0000 5.3172 24.9012 10.2273 -28.0746 -39.1848 -10.1708 -2.0459 16.9541 41.4859 0.0 0.0 0.0 7.1250 0.0 -0.0 45.3028 66.0128 -25.1486
-0.5790 18.7270 4.7226 -0.7964 -3.4519 2.7118 0.0000 0.0000 0.0000 -15.0228 -9.4786 -1.4125 1.1775 6.8872 19.3815 1.6747 5.2100 -26.7887 7.9711 -16.0979 -52.4584 0.0000 0.0000 0.0000 0.0000 0.0000 0.0000 0.0000 0.0000 0.0000 -0.0000 -0.0000 0.0000 -0.0000 -0.0000 0.0000 -1.1963 0.9071 -0.3809 -0.0123 1.1889 -3.8252 0.6225 0.6312 -3.7434 -3.3463 -3.0137 -9.8569 4.0942 -4.7708 27.4987 1.4655 -2.0775 10.6066 -0.0000 0.0000 0.0000 -1.2067 16.7198 -21.4037 22.0903 -33.0789 6.6351 2.8997 5.783 26.69 0.0 0.0 0.0 -7.1250 0.0 0.0 -16.1545 4.1384 -15.5914 -0.0000 0.0000 0.0000 5.285 24.8735 10.2331 -28.0609 -39.1723 -10.1621 -1.9119 16.9004 41.499 0.0 0.0 0.0 7.1250 0.0 -0.0 45.4514 65.9822 -25.2154
-0.5788 18.7269 4.7232 -0.8067 -3.4631 2.6961 0.0000 0.0000 0.0000 -15.0321 -9.5530 -1.3599 1.1782 6.8893 19.3877 1.6809 5.2431 -26.8510 7.9494 -16.0819 -52.3802 0.0000 0.0000 0.0000 0.0000 0.0000 0.0000 0.0000 0.0000 0.0000 -0.0000 -0.0000 0.0000 -0.0000 -0.0000 0.0000 -1.1816 0.9050 -0.3766 -0.0050 1.1867 -3.8164 0.6219 0.6297 -3.7365 -3.3489 -3.0057 -9.8665 4.0912 -4.7572 27.4857 1.4663 -2.0719 10.6030 0.0000 -0.0000 0.0000 -1.2154 16.7191 -21.4103 22.0946 -33.0838 6.6374 2.9402 5.7656 26.7291 0.0 0.0 0.0 -7.1250 0.0 0.0 -16.1307 4.0977 -15.5791 0.0000 -0.0000 0.0000 5.2593 24.8647 10.2466 -28.0692 -39.1799 -10.1674 -1.772 16.7981 41.4919 0.0 0.0 0.0 7.1250 0.0 -0.0 45.5728 65.9362 -25.2487
-0.5796 18.7265 4.7234 -0.8333 -3.4632 2.6925 0.0000 0.0000 0.0000 -14.9943 -9.5241 -1.3668 1.1788 6.8910 19.3928 1.6806 5.2059 -26.8283 7.9577 -16.0880 -52.4102 0.0000 0.0000 0.0000 0.0000 0.0000 0.0000 0.0000 0.0000 0.0000 -0.0000 -0.0000 0.0000 -0.0000 -0.0000 0.0000 -1.1666 0.9017 -0.3795 0.0053 1.1829 -3.8157 0.6243 0.6274 -3.7340 -3.3133 -3.0027 -9.8686 4.0569 -4.7501 27.4700 1.4487 -2.0690 10.5953 -0.0000 0.0000 0.0000 -1.2128 16.726 -21.4088 22.0920 -33.0809 6.636 2.9839 5.7661 26.7698 0.0 0.0 0.0 -7.1250 0.0 0.0 -16.1050 4.0551 -15.5653 -0.0000 0.0000 0.0000 5.2547 24.8743 10.2684 -28.0932 -39.2019 -10.1825 -1.8233 16.7753 41.4527 0.0 0.0 0.0 7.1250 0.0 -0.0 45.4603 65.9241 -25.163
-0.5796 18.7262 4.7244 -0.8293 -3.4563 2.6889 0.0000 0.0000 0.0000 -14.9923 -9.4793 -1.3840 1.1792 6.8919 19.3956 1.6775 5.1729 -26.7884 7.9662 -16.0943 -52.4407 0.0000 0.0000 0.0000 0.0000 0.0000 0.0000 0.0000 0.0000 0.0000 -0.0000 -0.0000 0.0000 -0.0000 -0.0000 0.0000 -1.1696 0.9014 -0.3921 0.0005 1.1824 -3.8127 0.6213 0.6272 -3.7237 -3.2783 -3.0104 -9.8961 4.0250 -4.7602 27.4943 1.4297 -2.0731 10.6085 -0.0000 0.0000 0.0000 -1.2043 16.7496 -21.5503 22.2715 -33.2826 6.7343 2.7917 6.0356 25.8317 0.0 0.0 0.0 -7.1250 0.0 0.0 -16.2245 4.9704 -15.402 -0.0000 0.0000 0.0000 5.2763 24.8614 10.244 -28.1036 -39.2114 -10.1891 -1.8754 16.7568 41.4718 0.0 0.0 0.0 7.1250 0.0 -0.0 45.4418 65.9526 -25.1794
